<svg width="28" height="28" viewBox="0 0 28 28" fill="none" xmlns="http://www.w3.org/2000/svg">
<path d="M3.71354 23.4969C6.27132 26.2659 9.93315 28 14 28C21.732 28 28 21.732 28 14C28 12.5508 27.7798 11.153 27.371 9.83823L21.4994 13.2282C21.5252 13.4819 21.5385 13.7394 21.5385 14C21.5385 18.1634 18.1634 21.5385 14 21.5385C12.3498 21.5385 10.8234 21.0082 9.58191 20.1088L3.71354 23.4969Z" fill="white"/>
<path d="M18.1461 7.7031C16.9566 6.91832 15.5317 6.46154 14 6.46154C9.83662 6.46154 6.46154 9.83662 6.46154 14C6.46154 14.1483 6.46582 14.2956 6.47427 14.4418L0.54101 17.8674C0.188701 16.6391 0 15.3416 0 14C0 6.26801 6.26801 0 14 0C17.9564 0 21.5294 1.64111 24.0755 4.27973L18.1461 7.7031Z" fill="white"/>
</svg>
