<svg width="118" height="28" viewBox="0 0 118 28" fill="none" xmlns="http://www.w3.org/2000/svg">
<path d="M3.71354 23.4969C6.27132 26.2659 9.93315 28 14 28C21.732 28 28 21.732 28 14C28 12.5508 27.7798 11.153 27.371 9.83823L21.4994 13.2282C21.5252 13.4819 21.5385 13.7394 21.5385 14C21.5385 18.1634 18.1634 21.5385 14 21.5385C12.3498 21.5385 10.8234 21.0082 9.58191 20.1088L3.71354 23.4969Z" fill="white"/>
<path d="M18.1461 7.7031C16.9566 6.91832 15.5316 6.46154 14 6.46154C9.83662 6.46154 6.46154 9.83662 6.46154 14C6.46154 14.1483 6.46582 14.2956 6.47427 14.4418L0.54101 17.8674C0.188701 16.6391 0 15.3416 0 14C0 6.26801 6.26801 0 14 0C17.9564 0 21.5294 1.64111 24.0755 4.27973L18.1461 7.7031Z" fill="white"/>
<path d="M39.7769 21.5692C41.1729 22.5995 43.0342 23.1147 45.3608 23.1147C47.5877 23.1147 49.3244 22.6328 50.5708 21.6689C51.8172 20.705 52.4404 19.3256 52.4404 17.5308C52.4404 16.2512 52.0498 15.1959 51.2687 14.365C50.5043 13.5174 49.2413 12.8527 47.4797 12.3707L44.1393 11.4484C43.2419 11.1991 42.652 10.9 42.3694 10.551C42.0869 10.1854 41.9457 9.78652 41.9457 9.35443C41.9457 8.7894 42.2033 8.3407 42.7184 8.00832C43.2336 7.67595 43.9233 7.50976 44.7875 7.50976C45.7846 7.50976 46.5989 7.71749 47.2304 8.13296C47.8785 8.54843 48.2857 9.19656 48.4519 10.0773H52.1412C51.975 8.44872 51.2687 7.14415 50.0223 6.16365C48.7759 5.16653 47.1058 4.66797 45.0118 4.66797C43.6491 4.66797 42.4608 4.88401 41.4471 5.3161C40.4334 5.73156 39.644 6.33814 39.0789 7.13584C38.5305 7.91692 38.2563 8.84756 38.2563 9.92778C38.2563 11.1908 38.6469 12.2461 39.4279 13.0936C40.2256 13.9246 41.4803 14.581 43.1921 15.063L46.5324 15.9853C47.3467 16.2013 47.9201 16.4922 48.2525 16.8578C48.5848 17.2068 48.751 17.6721 48.751 18.2537C48.751 18.8686 48.4685 19.3589 47.9035 19.7245C47.355 20.0901 46.5657 20.2729 45.5353 20.2729C44.2723 20.2729 43.2336 19.9987 42.4193 19.4503C41.605 18.8852 41.1397 18.1208 41.0233 17.1569H37.334C37.5666 19.0514 38.381 20.5222 39.7769 21.5692Z" fill="white"/>
<path d="M66.9887 10.1775V22.8908H70.7279V16.0605C70.7279 15.429 70.8526 14.8806 71.1019 14.4153C71.3678 13.95 71.7251 13.5844 72.1738 13.3185C72.6391 13.0526 73.1626 12.9196 73.7442 12.9196C74.4256 12.9196 74.9408 13.0941 75.2898 13.4431C75.6554 13.7921 75.8382 14.3156 75.8382 15.0136V22.8908H79.5774V14.2907C79.5774 12.9612 79.2035 11.9059 78.4556 11.1248C77.7078 10.3271 76.6276 9.92825 75.215 9.92825C74.0351 9.92825 73.0379 10.2108 72.2236 10.7758C71.573 11.2231 71.0495 11.7976 70.6532 12.4992V10.1775H66.9887Z" fill="white"/>
<path d="M87.6628 23.1401C86.3333 23.1401 85.1617 22.8576 84.1479 22.2925C83.1342 21.7275 82.3365 20.9464 81.7548 19.9493C81.1898 18.9522 80.9073 17.8138 80.9073 16.5342C80.9073 15.2545 81.1898 14.1162 81.7548 13.119C82.3365 12.1219 83.1342 11.3408 84.1479 10.7758C85.1617 10.2108 86.3333 9.92825 87.6628 9.92825C88.7762 9.92825 89.7733 10.136 90.6541 10.5515C91.5515 10.9503 92.2828 11.507 92.8478 12.2216C93.4295 12.9362 93.8034 13.7755 93.9696 14.7394H90.355C90.1722 14.1245 89.8398 13.6591 89.3579 13.3434C88.8926 13.0276 88.3441 12.8698 87.7126 12.8698C87.1144 12.8698 86.5909 13.0193 86.1422 13.3185C85.7101 13.6176 85.3777 14.0414 85.1451 14.5898C84.9124 15.1382 84.7961 15.7863 84.7961 16.5342C84.7961 17.282 84.9124 17.9301 85.1451 18.4786C85.3777 19.027 85.7101 19.4508 86.1422 19.7499C86.5909 20.049 87.1144 20.1986 87.7126 20.1986C88.3441 20.1986 88.8926 20.0407 89.3579 19.725C89.8398 19.4092 90.1722 18.9439 90.355 18.329H93.9696C93.8034 19.2929 93.4295 20.1321 92.8478 20.8467C92.2828 21.5613 91.5515 22.1264 90.6541 22.5418C89.7733 22.9407 88.7762 23.1401 87.6628 23.1401Z" fill="white"/>
<path d="M95.3817 22.8908H99.1209V16.26C99.1209 15.2296 99.4034 14.5067 99.9684 14.0912C100.533 13.6591 101.414 13.4431 102.611 13.4431C102.827 13.4431 103.01 13.4514 103.159 13.468C103.309 13.468 103.425 13.4846 103.508 13.5179V10.028C103.359 9.96149 103.126 9.92825 102.81 9.92825C101.796 9.92825 100.949 10.2108 100.268 10.7758C99.7502 11.2048 99.3431 11.7823 99.0461 12.5083V10.1775H95.3817V22.8908Z" fill="white"/>
<path fill-rule="evenodd" clip-rule="evenodd" d="M106.944 22.3175C108.008 22.8659 109.238 23.1401 110.633 23.1401C112.029 23.1401 113.251 22.8659 114.298 22.3175C115.361 21.7524 116.184 20.9714 116.766 19.9742C117.364 18.9605 117.663 17.7972 117.663 16.4843C117.663 15.1714 117.372 14.0248 116.791 13.0443C116.209 12.0637 115.386 11.2993 114.323 10.7509C113.276 10.2025 112.046 9.92825 110.633 9.92825C109.238 9.92825 108.008 10.2025 106.944 10.7509C105.897 11.2993 105.075 12.0637 104.476 13.0443C103.895 14.0248 103.604 15.1714 103.604 16.4843C103.604 17.7972 103.895 18.9605 104.476 19.9742C105.075 20.9714 105.897 21.7524 106.944 22.3175ZM112.204 19.7499C111.739 20.049 111.215 20.1986 110.633 20.1986C110.052 20.1986 109.52 20.049 109.038 19.7499C108.573 19.4508 108.199 19.027 107.916 18.4786C107.634 17.9135 107.493 17.2405 107.493 16.4594C107.493 15.3293 107.792 14.4485 108.39 13.817C109.005 13.1855 109.753 12.8698 110.633 12.8698C111.514 12.8698 112.254 13.1855 112.852 13.817C113.467 14.4319 113.774 15.3127 113.774 16.4594C113.774 17.2405 113.633 17.9135 113.351 18.4786C113.068 19.027 112.686 19.4508 112.204 19.7499Z" fill="white"/>
<path d="M54.6218 28.0013L57.1885 22.3217L52.4281 10.1778H56.4665L59.2179 17.9706L62.0753 10.1778H66.0638L58.361 28.0013H54.6218Z" fill="white"/>
</svg>
