<svg width="24" height="24" viewBox="0 0 24 24" fill="none" xmlns="http://www.w3.org/2000/svg">
<path d="M11.9981 6.0902C13.3862 6.08935 14.7299 6.5799 15.791 7.47495L18.7632 4.64456C17.6222 3.59253 16.2518 2.8209 14.7606 2.39092C13.2694 1.96094 11.6985 1.88444 10.1726 2.1675C8.64668 2.45055 7.20775 3.08537 5.96998 4.02157C4.73222 4.95778 3.7297 6.16959 3.04199 7.56084L6.39273 10.1435C6.78351 8.96516 7.53514 7.9396 8.54115 7.21213C9.54717 6.48466 10.7566 6.09215 11.9981 6.0902Z" fill="#EB4235"/>
<path d="M6.09014 11.9981C6.09098 11.3677 6.19318 10.7415 6.39281 10.1435L3.04207 7.56079C2.35668 8.93958 2 10.4584 2 11.9981C2 13.5379 2.35668 15.0567 3.04207 16.4355L6.39281 13.8528C6.19318 13.2548 6.09098 12.6286 6.09014 11.9981Z" fill="#FABB05"/>
<path d="M21.5871 10.1804H12.0435V14.2706H17.4515C17.1298 15.4271 16.3927 16.4242 15.3815 17.071L18.7063 19.6341C20.8309 17.7272 22.0793 14.6264 21.5871 10.1804Z" fill="#4286F4"/>
<path d="M15.3801 17.0708C14.3526 17.6589 13.1812 17.9482 11.9981 17.9061C10.7566 17.9042 9.54717 17.5117 8.54115 16.7842C7.53514 16.0567 6.78351 15.0312 6.39273 13.8528L3.04199 16.4355C3.86963 18.1039 5.14635 19.5082 6.72855 20.4906C8.31076 21.473 10.1357 21.9944 11.9981 21.9963C14.4487 22.0628 16.8374 21.2212 18.705 19.6331L15.3801 17.0708Z" fill="#34A953"/>
</svg>
